HIERARCHY
ROOT joint_Root
{
	OFFSET 0.0 0.0 0.0
	CHANNELS 6 Xposition Yposition Zposition Zrotation Xrotation Yrotation 
	JOINT Hips
	{
		OFFSET -17.1583 93.1646 452.98
		CHANNELS 6 Xposition Yposition Zposition Zrotation Xrotation Yrotation 
		JOINT Spine
		{
			OFFSET 15.7357 0.0 0.0
			CHANNELS 6 Xposition Yposition Zposition Zrotation Xrotation Yrotation 
			JOINT Chest
			{
				OFFSET 8.98455 -0.406207 0.0
				CHANNELS 6 Xposition Yposition Zposition Zrotation Xrotation Yrotation 
				JOINT Neck
				{
					OFFSET 16.3773 0.0 0.0
					CHANNELS 6 Xposition Yposition Zposition Zrotation Xrotation Yrotation 
					JOINT Head
					{
						OFFSET 6.45672 0.0 0.0
						CHANNELS 6 Xposition Yposition Zposition Zrotation Xrotation Yrotation 
						End Site
						{
							OFFSET 0.0 0.0 0.0
						}
					}
				}
				JOINT Shoulder_L
				{
					OFFSET 12.9942 -0.242716 4.98039
					CHANNELS 6 Xposition Yposition Zposition Zrotation Xrotation Yrotation 
					JOINT UpperArm_L
					{
						OFFSET 5.34809 0.0 0.0
						CHANNELS 6 Xposition Yposition Zposition Zrotation Xrotation Yrotation 
						JOINT LowerArm_L
						{
							OFFSET 24.3286 1.87007e-05 0.0
							CHANNELS 6 Xposition Yposition Zposition Zrotation Xrotation Yrotation 
							JOINT Hand_L
							{
								OFFSET 22.2916 0.0 0.0
								CHANNELS 6 Xposition Yposition Zposition Zrotation Xrotation Yrotation 
								End Site
								{
									OFFSET 0.0 0.0 0.0
								}
							}
						}
					}
				}
				JOINT Shoulder_R
				{
					OFFSET 12.9945 -0.242716 -4.98039
					CHANNELS 6 Xposition Yposition Zposition Zrotation Xrotation Yrotation 
					JOINT UpperArm_R
					{
						OFFSET -5.34813 0.0 0.0
						CHANNELS 6 Xposition Yposition Zposition Zrotation Xrotation Yrotation 
						JOINT LowerArm_R
						{
							OFFSET -24.3289 0.000322201 0.0
							CHANNELS 6 Xposition Yposition Zposition Zrotation Xrotation Yrotation 
							JOINT Hand_R
							{
								OFFSET -22.2915 -0.000108084 0.0
								CHANNELS 6 Xposition Yposition Zposition Zrotation Xrotation Yrotation 
								End Site
								{
									OFFSET 0.0 0.0 0.0
								}
							}
						}
					}
				}
			}
		}
		JOINT UpperLeg_L
		{
			OFFSET -2.19248 -6.46944 0.0
			CHANNELS 6 Xposition Yposition Zposition Zrotation Xrotation Yrotation 
			JOINT LowerLeg_L
			{
				OFFSET 39.0811 0.0 -1.23785e-05
				CHANNELS 6 Xposition Yposition Zposition Zrotation Xrotation Yrotation 
				JOINT Foot_L
				{
					OFFSET 40.9854 0.0 -1.26872e-05
					CHANNELS 6 Xposition Yposition Zposition Zrotation Xrotation Yrotation 
					JOINT Toes_L
					{
						OFFSET 11.7543 0.0 0.0
						CHANNELS 6 Xposition Yposition Zposition Zrotation Xrotation Yrotation 
						End Site
						{
							OFFSET 0.0 0.0 0.0
						}
					}
				}
			}
		}
		JOINT UpperLeg_R
		{
			OFFSET -2.19251 6.46944 0.0
			CHANNELS 6 Xposition Yposition Zposition Zrotation Xrotation Yrotation 
			JOINT LowerLeg_R
			{
				OFFSET -39.0811 -0.00228153 -0.0401928
				CHANNELS 6 Xposition Yposition Zposition Zrotation Xrotation Yrotation 
				JOINT Foot_R
				{
					OFFSET -40.9854 0.0 0.0
					CHANNELS 6 Xposition Yposition Zposition Zrotation Xrotation Yrotation 
					JOINT Toes_R
					{
						OFFSET -11.7543 0.0 0.0
						CHANNELS 6 Xposition Yposition Zposition Zrotation Xrotation Yrotation 
						End Site
						{
							OFFSET 0.0 0.0 0.0
						}
					}
				}
			}
		}
	}
}
MOTION
Frames:	4
Frame Time:	0.0333333
0.000000 0.000000 0.000000 0.000000 0.000000 -0.000000 -0.036745 92.754800 2.827400 87.158800 -2.897660 2.293410 15.735700 0.000005 -0.000001 89.597400 87.479200 -94.799800 8.984550 -0.406207 -0.000000 -2.683270 0.438177 -10.394900 16.377300 -0.000001 -0.000001 -1.967690 0.758521 -9.428550 6.456720 -0.000001 -0.000000 1.113110 3.249370 -22.537800 12.994200 -0.242716 4.980390 -92.623800 8.550380 -72.870000 5.348090 -0.000007 -0.000001 -60.638700 0.983893 5.151460 24.328600 0.000019 0.000005 13.090700 26.506000 -27.521300 22.291600 -0.000001 0.000005 1.435520 4.858520 10.195300 12.994500 -0.242716 -4.980390 94.577900 -9.035540 -62.985300 -5.348130 -0.000001 -0.000004 -24.932900 -61.392400 -62.648200 -24.328900 0.000322 -0.000009 -0.154893 -0.906825 -9.629550 -22.291500 -0.000108 -0.000004 47.160000 5.509240 -6.910000 -2.192480 -6.469440 -0.000000 -173.135000 -8.111910 1.936310 39.081100 -0.000007 -0.000012 0.013562 -0.043965 17.143900 40.985400 -0.000006 -0.000013 0.389425 11.718300 -70.813000 11.754300 -0.000000 0.000003 -0.002068 0.197196 -8.576270 -2.192510 6.469440 -0.000001 177.050000 5.357180 -175.678000 -39.081100 -0.002282 -0.040193 -0.010070 0.066729 11.359800 -40.985400 0.000008 0.000006 -9.349440 8.428040 -67.301300 -11.754300 -0.000006 -0.000006 -0.009882 0.270422 -5.587100
0.000000 0.000000 0.000000 0.000000 0.000000 -0.000000 -0.029529 92.768000 2.836390 87.173400 -2.870920 2.188840 15.735700 0.000005 -0.000001 89.624700 87.506900 -94.786100 8.984550 -0.406207 -0.000000 -2.739200 0.439739 -10.312900 16.377300 -0.000001 -0.000001 -1.953200 0.789874 -9.338080 6.456720 -0.000001 -0.000000 1.185220 3.325940 -22.465000 12.994200 -0.242716 4.980390 -92.605400 8.495570 -72.880200 5.348090 -0.000007 -0.000001 -60.608600 1.071550 5.100570 24.328600 0.000019 0.000005 13.286500 26.399400 -27.972700 22.291600 -0.000001 0.000005 1.360990 4.865090 10.067100 12.994500 -0.242716 -4.980390 94.566300 -8.992000 -62.933200 -5.348130 -0.000001 -0.000004 -24.683600 -61.124800 -62.161000 -24.328900 0.000322 -0.000009 -0.125982 -0.756333 -9.380770 -22.291500 -0.000108 -0.000004 46.898300 5.510910 -6.979700 -2.192480 -6.469440 -0.000000 -173.157000 -8.142830 1.912490 39.081100 -0.000007 -0.000012 0.012988 -0.042480 17.001600 40.985400 -0.000006 -0.000013 0.383778 11.768500 -70.797600 11.754300 -0.000000 0.000003 -0.002113 0.197747 -8.553880 -2.192510 6.469440 -0.000001 177.018000 5.442190 -175.679000 -39.081100 -0.002282 -0.040193 -0.010134 0.068208 11.172000 -40.985400 0.000008 0.000006 -9.392850 8.486710 -67.221800 -11.754300 -0.000006 -0.000006 -0.010108 0.272112 -5.517990
0.000000 0.000000 0.000000 0.000000 0.000000 -0.000000 -0.040081 92.771800 2.849170 87.170200 -2.876080 2.099960 15.735700 0.000005 -0.000001 89.736000 87.518700 -94.852800 8.984550 -0.406207 -0.000000 -2.762940 0.446513 -10.223500 16.377300 -0.000001 -0.000001 -2.007440 0.784181 -9.234900 6.456720 -0.000001 -0.000000 1.205440 3.313620 -22.427200 12.994200 -0.242716 4.980390 -92.609200 8.498230 -72.861800 5.348090 -0.000007 -0.000001 -60.521300 1.247450 5.013730 24.328600 0.000019 0.000005 13.468300 26.209700 -28.469300 22.291600 -0.000001 0.000005 1.411100 4.865710 10.055000 12.994500 -0.242716 -4.980390 94.547700 -8.938740 -62.891700 -5.348130 -0.000001 -0.000004 -24.564800 -60.937000 -61.926400 -24.328900 0.000322 -0.000009 -0.125249 -0.795845 -8.872040 -22.291500 -0.000108 -0.000004 46.688500 5.506230 -6.786740 -2.192480 -6.469440 -0.000000 -173.166000 -8.104540 1.858400 39.081100 -0.000007 -0.000012 0.012408 -0.040742 16.938800 40.985400 -0.000006 -0.000013 0.365954 11.729000 -70.732500 11.754300 -0.000000 0.000003 -0.001903 0.195128 -8.660400 -2.192510 6.469440 -0.000001 177.045000 5.422890 -175.737000 -39.081100 -0.002282 -0.040193 -0.009794 0.066859 11.111800 -40.985400 0.000008 0.000006 -9.377150 8.467510 -67.177200 -11.754300 -0.000006 -0.000006 -0.010068 0.271810 -5.530340
0.000000 0.000000 0.000000 0.000000 0.000000 -0.000000 -0.062491 92.783200 2.860200 87.175500 -2.884480 2.004000 15.735700 0.000005 -0.000001 89.716800 87.537900 -94.794500 8.984550 -0.406207 -0.000000 -2.801880 0.443186 -10.145400 16.377300 -0.000001 -0.000001 -2.034440 0.769282 -9.196250 6.456720 -0.000001 -0.000000 1.176290 3.282120 -22.330100 12.994200 -0.242716 4.980390 -92.587600 8.425260 -72.858300 5.348090 -0.000007 -0.000001 -60.533600 1.277190 4.907790 24.328600 0.000019 0.000005 13.577900 26.007900 -28.845200 22.291600 -0.000001 0.000005 1.473150 4.866020 10.049100 12.994500 -0.242716 -4.980390 94.543200 -8.943190 -62.926300 -5.348130 -0.000001 -0.000004 -24.804700 -60.876300 -61.931100 -24.328900 0.000322 -0.000009 -0.157465 -1.065320 -8.355140 -22.291500 -0.000108 -0.000004 46.599000 5.505050 -6.738200 -2.192480 -6.469440 -0.000000 -173.176000 -8.105730 1.828750 39.081100 -0.000007 -0.000012 0.013084 -0.043244 16.834500 40.985400 -0.000006 -0.000013 0.334835 11.697600 -70.781400 11.754300 -0.000000 0.000003 -0.002078 0.197317 -8.571380 -2.192510 6.469440 -0.000001 177.055000 5.462710 -175.759000 -39.081100 -0.002282 -0.040193 -0.009781 0.067635 10.976700 -40.985400 0.000008 0.000006 -9.415260 8.477050 -67.109800 -11.754300 -0.000006 -0.000006 -0.009900 0.270553 -5.581750
